<svg id="Layer_1" data-name="Layer 1" xmlns="http://www.w3.org/2000/svg" viewBox="0 0 1400 1400"><path d="M1589.06,621.93l-142.18-82.09v-46c0-61.83-76.87-110.27-175-110.27a266.77,266.77,0,0,0-76.72,10.92L1075,325.14V310.27C1075,248.44,998.14,200,900,200S725,248.44,725,310.27v14.87L604.84,394.51a266.66,266.66,0,0,0-76.72-10.92c-98.13,0-175,48.44-175,110.27v46L210.94,621.93a21.88,21.88,0,0,0-10.94,19v545.73a21.82,21.82,0,0,0,10.94,18.93l678.12,391.53a21.89,21.89,0,0,0,21.88,0l678.12-391.53a21.84,21.84,0,0,0,10.94-18.93V640.88A21.88,21.88,0,0,0,1589.06,621.93ZM1556.25,1174,921.88,1540.24V1045l634.37-366.27ZM353.19,590.33c.64,61.46,77.22,109.52,175,109.52,98.12,0,175-48.44,175-110.28v-95.7c0-30.38-18.62-57.46-49.12-77.21l71-41V406c0,61.82,76.86,110.27,175,110.27S1075,467.8,1075,406V375.66l71,41c-30.49,19.74-49.11,46.82-49.11,77.2v95.7c0,61.83,76.88,110.28,175,110.28,97.73,0,174.31-48.05,174.93-109.53l87.57,50.57L900,1007.12,265.62,640.88Zm174.93-163c6.37,0,12.5.32,18.53.77a222.22,222.22,0,0,1,34.7,5.22,176.34,176.34,0,0,1,28,9.11c31.22,13.13,50.07,32.87,50.07,51.42,0,31.47-53.9,66.52-131.26,66.52-36.2,0-67.16-7.73-89.95-19.13a113.57,113.57,0,0,1-20.92-13.19,65.49,65.49,0,0,1-15-16.6,34.11,34.11,0,0,1-5.38-17.6C396.88,462.39,450.79,427.34,528.12,427.34Zm-131.24,140c31.83,22.63,78.38,36.77,131.24,36.77S627.54,590,659.38,567.36v22.2c0,31.47-53.9,66.53-131.26,66.53S396.88,621,396.88,589.56ZM771.21,298.47c8.95-22,42-43.46,89.09-51.44a242,242,0,0,1,79.42,0c47,8,80.13,29.4,89.09,51.44a31.1,31.1,0,0,1,2.44,11.8,31.8,31.8,0,0,1-3.08,13.08c-2.69,6-7.2,12-13.26,17.6-21.56,20-62.87,35.84-114.9,35.84S806.66,360.91,785.11,341c-6.08-5.63-10.57-11.57-13.27-17.6a31.64,31.64,0,0,1-3.08-13.08A30.73,30.73,0,0,1,771.21,298.47Zm-2.46,85.3c31.83,22.63,78.39,36.77,131.25,36.77s99.41-14.14,131.25-36.78V406c0,31.46-53.9,66.52-131.25,66.52S768.75,437.44,768.75,406Zm503.13,43.57c77.35,0,131.24,35.05,131.24,66.52a34.18,34.18,0,0,1-5.36,17.6,66,66,0,0,1-15,16.61,114.24,114.24,0,0,1-20.9,13.19c-22.81,11.4-53.77,19.13-90,19.13-77.36,0-131.26-35-131.26-66.52,0-18.55,18.85-38.29,50.06-51.42a180.06,180.06,0,0,1,28-9.11,225.49,225.49,0,0,1,34.69-5.23C1259.38,427.66,1265.53,427.34,1271.88,427.34Zm-131.26,140c31.84,22.64,78.4,36.78,131.26,36.78s99.41-14.14,131.24-36.78v22.21c0,31.47-53.89,66.53-131.24,66.53S1140.62,621,1140.62,589.56ZM878.12,1045v495.22L243.75,1174V678.75Z" transform="translate(-200 -200)"/><path d="M1075,787.85V692.14c0-61.83-76.86-110.27-175-110.27S725,630.31,725,692.14v95.71c0,61.82,76.86,110.27,175,110.27S1075,849.67,1075,787.85ZM900,625.62c77.35,0,131.25,35.06,131.25,66.52S977.35,758.67,900,758.67s-131.25-35.06-131.25-66.53S822.67,625.62,900,625.62Zm-131.25,140c31.83,22.64,78.39,36.78,131.25,36.78s99.41-14.14,131.25-36.79v22.22c0,31.46-53.9,66.52-131.25,66.52s-131.25-35.06-131.25-66.52Z" transform="translate(-200 -200)"/></svg>