<svg id="Layer_1" data-name="Layer 1" xmlns="http://www.w3.org/2000/svg" viewBox="0 0 1440 1440"><defs><style>.cls-1{stroke:#231f20;stroke-miterlimit:10;stroke-width:40px;}</style></defs><path class="cls-1" d="M1589.07,603.77l-142.19-82.08v-46c0-61.84-76.86-110.28-175-110.28a266.69,266.69,0,0,0-76.71,10.93L1075,307V292.12c0-61.83-76.87-110.27-175-110.27S725,230.29,725,292.12V307L604.84,376.36a266.59,266.59,0,0,0-76.71-10.93c-98.14,0-175,48.44-175,110.28v46L210.94,603.77a21.87,21.87,0,0,0-10.93,19v545.73a21.84,21.84,0,0,0,10.93,18.94l678.13,391.53a21.87,21.87,0,0,0,21.87,0l678.13-391.53a21.86,21.86,0,0,0,10.94-18.94V622.72A21.88,21.88,0,0,0,1589.07,603.77Zm-32.81,552.06L921.88,1522.09V1026.86L1556.26,660.6ZM353.19,572.18c.65,61.46,77.23,109.51,175,109.51,98.13,0,175-48.44,175-110.27v-95.7c0-30.38-18.62-57.47-49.11-77.22l71-41v30.31c0,61.82,76.86,110.27,175,110.27s175-48.45,175-110.27V357.51l71,41c-30.48,19.74-49.11,46.83-49.11,77.21v95.7c0,61.82,76.88,110.27,175,110.27,97.73,0,174.32-48,174.94-109.52l87.56,50.56L900,989,265.63,622.72Zm174.94-163c6.37,0,12.5.32,18.52.77a220.66,220.66,0,0,1,34.7,5.23,176.47,176.47,0,0,1,28,9.11c31.22,13.12,50.06,32.86,50.06,51.42,0,31.46-53.9,66.52-131.25,66.52-36.21,0-67.16-7.74-90-19.13a113.66,113.66,0,0,1-20.91-13.19,65.71,65.71,0,0,1-15-16.6c-3.51-5.83-5.38-11.77-5.38-17.6C396.88,444.24,450.8,409.18,528.13,409.18Zm-131.25,140C428.71,571.84,475.27,586,528.13,586s99.42-14.14,131.25-36.78v22.21c0,31.47-53.9,66.52-131.25,66.52s-131.25-35-131.25-66.52ZM771.21,280.32c8.95-22,42-43.47,89.09-51.44a242.08,242.08,0,0,1,79.43,0c47,8,80.13,29.4,89.09,51.44a31.29,31.29,0,0,1,2.44,11.8,32,32,0,0,1-3.08,13.07c-2.69,6-7.2,12-13.27,17.6-21.55,20-62.87,35.85-114.89,35.85s-93.36-15.88-114.9-35.85c-6.09-5.62-10.58-11.56-13.28-17.6a31.78,31.78,0,0,1-3.07-13.07A30.91,30.91,0,0,1,771.21,280.32Zm-2.45,85.3c31.83,22.63,78.38,36.77,131.25,36.77s99.4-14.14,131.25-36.78v22.21c0,31.47-53.9,66.52-131.25,66.52s-131.25-35-131.25-66.52Zm503.12,43.56c77.35,0,131.25,35.06,131.25,66.53,0,5.83-1.86,11.77-5.36,17.6a66.23,66.23,0,0,1-15,16.61,114.34,114.34,0,0,1-20.89,13.19c-22.82,11.4-53.77,19.13-90,19.13-77.35,0-131.25-35.06-131.25-66.52,0-18.56,18.84-38.3,50-51.42a179.14,179.14,0,0,1,28-9.11,225.09,225.09,0,0,1,34.69-5.24C1259.38,409.5,1265.54,409.18,1271.88,409.18Zm-131.25,140C1172.46,571.84,1219,586,1271.88,586s99.42-14.14,131.25-36.79v22.22c0,31.47-53.9,66.52-131.25,66.52s-131.25-35-131.25-66.52Zm-262.5,477.67v495.23L243.76,1155.83V660.6Z" transform="translate(-180.01 -161.85)"/><path class="cls-1" d="M1075,787.85V692.14c0-61.83-76.86-110.27-175-110.27S725,630.31,725,692.14v95.71c0,61.82,76.86,110.27,175,110.27S1075,849.67,1075,787.85ZM900,625.62c77.35,0,131.25,35.06,131.25,66.52S977.35,758.67,900,758.67s-131.25-35.06-131.25-66.53S822.67,625.62,900,625.62Zm-131.25,140c31.83,22.64,78.39,36.78,131.25,36.78s99.41-14.14,131.25-36.79v22.22c0,31.46-53.9,66.52-131.25,66.52s-131.25-35.06-131.25-66.52Z" transform="translate(-180.01 -161.85)"/></svg>