<?xml version="1.0" encoding="UTF-8"?><svg id="Layer_1" xmlns="http://www.w3.org/2000/svg" viewBox="0 0 64.68 75.55"><defs><style>.cls-1{fill:#f87b7a;}.cls-2{fill:#f87e7d;}.cls-3{fill:#f97f7e;}.cls-4{fill:#010ddb;}.cls-5{fill:#fddb4e;}.cls-6{fill:#7dbbfe;}.cls-7{fill:#7bbafe;}.cls-8{fill:#904b3b;}.cls-9{fill:#a49efa;}.cls-10{fill:#dbb496;}.cls-11{fill:#4159ef;}.cls-12{fill:#0712da;}.cls-13{fill:#465eef;}.cls-14{fill:#465ef0;}.cls-15{fill:#61edc5;}.cls-16{fill:#61ecc5;}.cls-17{fill:#60ecc4;}.cls-18{fill:#4a63f1;}.cls-19{fill:#3c3b3b;}.cls-20{fill:#4b63f1;}.cls-21{fill:#5eecc4;}.cls-22{fill:#7ab9fe;}</style></defs><path class="cls-20" d="M21.4,36.07c.9-.83,1.8-1.67,2.71-2.5,4.22-3.85,8.88-7.2,13.57-10.51,2.09-1.48,3.94-3.26,5.93-4.87,2.43-1.98,4.33-4.42,6.39-6.72,.23-.25,.48-.48,.71-.72,.42-.43,.89-.52,1.5-.25,.62,.28,.76,.68,.77,1.29,.12,4.19-.5,8.25-1.72,12.18-.62,2-1.37,3.95-2.08,5.91-.49,1.35-1,2.69-1.5,4.03-.42,.43-.82,.87-.57,1.56l-.12,.37c-.56,.2-.66,.57-.39,1.08l-.15,.37-.17,.46-.53,1.31c-.09,.09-.21,.15-.26,.26-.62,1.35-1.24,2.71-1.85,4.06-.05,.12-.04,.28-.05,.42l-.21,.45c-.21,.42-.42,.84-.63,1.26l-.16,.33c-.73,.17-1.22-.37-1.8-.66-.49-.25-.99-.47-1.48-.7l-.61-.33c-.26-.68-.85-.86-1.49-.97l-.48-.26c-.09-.52-.52-.52-.92-.58l-1.21-.65c-.44-.75-1.19-1.01-1.98-1.2l-.85-.44c-.05-.11-.07-.27-.15-.31-1.26-.68-2.52-1.38-3.81-2.01-.34-.17-.77-.14-1.17-.2l-.38-.17c-.3-.31-.6-.64-1.06-.29l-.51-.2-.29-.02-.38-.15-.71-.11-.26-.1c-.39-.29-.79-.46-1.25-.22l-.4-.2Z"/><path class="cls-4" d="M40.77,49c-.12-.05-.24-.1-.37-.15-.11-.06-.22-.12-.33-.18-.19-.1-.38-.2-.56-.31-.4-.24-.79-.49-1.19-.73l-.45-.23-1.95-1.2c-.27-.14-.53-.28-.8-.42-.06-.08-.11-.19-.19-.23-1.41-.75-2.82-1.52-4.25-2.22-1.49-.73-3.01-1.41-4.53-2.1-.18-.08-.39-.1-.58-.15-.35-.16-.7-.33-1.05-.49-.71-.27-1.43-.55-2.14-.82l-.69-.31-1.07-.39c-.08-.04-.16-.07-.24-.11-.12-.05-.23-.1-.35-.15-.12-.05-.23-.11-.35-.16-.22-.11-.43-.21-.66-.33l.32-.55,.13-.16,.15-.12,4.17-3.68,.31-.18h.01c.12,.06,.25,.12,.37,.18,.39,.06,.78,.12,1.18,.18,.08,.03,.16,.06,.24,.09,.22,.03,.44,.06,.66,.09,.12,.05,.24,.09,.36,.14,.09,0,.18,0,.27,.01,.16,.06,.32,.12,.48,.19,.33,.09,.67,.17,1,.26,.12,.05,.24,.11,.35,.16,1.6,.79,3.19,1.57,4.79,2.35,.26,.14,.53,.27,.79,.41,.61,.38,1.23,.76,1.84,1.13,.38,.2,.75,.4,1.13,.61,.28,.18,.57,.37,.85,.55l.45,.24c.46,.31,.92,.61,1.39,.92,.19,.1,.38,.2,.57,.31,.17,.14,.33,.29,.52,.41,.75,.48,1.51,.95,2.27,1.42l-.21,.61-.32,.85c-.63,1.28-1.26,2.55-1.89,3.83l-.39,.43Z"/><ellipse class="cls-20" cx="27.93" cy="46.35" rx="4.41" ry="23.17" transform="translate(-26.06 50.12) rotate(-62.92)"/><path class="cls-5" d="M10.1,63.12c-.25-.87,.44-1.41,.78-2.05,1.43-2.72,2.93-5.42,4.39-8.12,1.22-2.26,2.44-4.53,3.65-6.79,.04-.07,.06-.16,.1-.23,.01-.03,.01-.05,.01-.08l.57-.85,.34-.55,.34-.51c.89,.31,1.8,.57,2.66,.95,2,.89,3.98,1.84,5.96,2.76-.63,1-1.26,2-1.88,3-1.54,2.5-3.08,4.99-4.6,7.5-.84,1.39-1.64,2.81-2.44,4.22-.25,.43-.19,.83,.29,1.07,.47,.24,.79,.04,1.04-.4,.71-1.27,1.43-2.54,2.17-3.79,.84-1.41,1.7-2.82,2.57-4.21,1.38-2.22,2.78-4.43,4.17-6.65,.19,.09,.39,.17,.56,.28,1.12,.69,2.23,1.39,3.35,2.09l-.41,.91-.23,.44-1.16,1.91c-.88,1.46-1.74,2.92-2.63,4.38-.31,.5-.69,.96-.98,1.47-1.25,2.2-2.47,4.42-3.73,6.61-.47,.81-1.04,1.57-1.56,2.36-.06-.2-.08-.42-.17-.6-.31-.56-.51-1.29-.99-1.63-1.19-.83-2.55-1.22-4.01-.71-.46,.16-.72-.04-1.02-.37-.35-.4-.78-.75-1.22-1.05-.44-.29-.94-.49-1.42-.7-1.43-.63-2.91-.99-4.49-.64Z"/><path class="cls-10" d="M10.1,63.12c1.58-.35,3.05,.01,4.49,.64,.48,.21,.98,.42,1.42,.7,.45,.29,.87,.65,1.22,1.05,.3,.34,.56,.54,1.02,.37,1.47-.52,2.83-.13,4.01,.71,.48,.34,.68,1.06,.99,1.63,.1,.18,.12,.4,.17,.6-1.02,1.12-2.26,1.94-3.61,2.6-1.26,.62-2.53,1.23-3.81,1.83-.51,.24-1.05,.42-1.58,.63-.58-.29-1.18-.57-1.75-.88-.85-.46-1.68-.94-2.52-1.42-.25-2.82-.59-5.63-.06-8.45Z"/><path class="cls-22" d="M5.82,25.92c.05-.15,.13-.29,.14-.43,.03-.45,.36-.63,.69-.52,.19,.06,.36,.46,.38,.72,.06,1.01,.05,2.05,.74,2.88,.2,.24,.54,.36,.78,.57,.22,.19,.39,.43,.59,.64-.24,.17-.45,.42-.71,.48-.92,.21-1.87,.28-2.76,.57-.43,.14-.8,.59-1.09,.98-.25,.34-.49,.68-.89,.42-.17-.11-.19-.59-.14-.87,.11-.64,.34-1.26,.47-1.89,.07-.37-.1-.61-.52-.72-.23-.06-.41-.33-.61-.51,.2-.21,.36-.52,.6-.61,.96-.34,1.82-.79,2.33-1.71Zm.24,1.7c-.15,.04-.25,.06-.34,.09-.67,.27-.79,.51-.62,1.27q.17,.78,.93,.53c.08-.03,.16-.06,.24-.08,.39-.09,.55-.27,.31-.67-.12-.19-.17-.43-.26-.64-.07-.17-.16-.33-.26-.51Z"/><path class="cls-1" d="M53.39,45.06c.58-1.03,.5-1.35-.39-2.09-.17-.15-.34-.5-.27-.67,.06-.17,.43-.37,.63-.34,.74,.11,1.32-.16,1.86-.61,.36-.3,.72-.59,1.13-.81,.18-.1,.54-.09,.67,.03,.14,.13,.22,.48,.15,.68-.38,1.12-.33,2.19,.2,3.25,.23,.45-.09,.85-.61,.78-.38-.05-.77-.22-1.12-.16-.45,.08-.93,.26-1.28,.55-.32,.26-.52,.78-1.01,.48-.59-.35-.08-.77,.03-1.09Zm2.45-2.69c-.34,.17-.58,.31-.84,.43-.55,.25-.21,.67-.14,.98,.11,.5,.57,.25,.84,.19,.11-.02,.18-.41,.2-.64,.02-.27-.03-.54-.06-.96Z"/><path class="cls-19" d="M10.16,71.57c.84,.47,1.67,.96,2.52,1.42,.57,.31,1.16,.59,1.75,.88l-3.58,1.68-.69-3.98Z"/><path class="cls-9" d="M33.37,19.29c-.06-.22-.17-.44-.15-.65,.02-.22,.15-.43,.25-.64,.17-.36,.15-.62-.33-.66-.12-.01-.28-.03-.35-.11-.14-.16-.29-.36-.32-.56-.01-.09,.24-.24,.4-.32,.1-.05,.26-.07,.37-.03,.74,.26,1.09-.12,1.29-.76,.04-.12,.09-.28,.18-.32,.23-.11,.49-.15,.73-.23,.07,.26,.25,.56,.18,.77-.29,.87-.31,.84,.5,1.19,.19,.09,.29,.4,.43,.6-.2,.12-.39,.25-.59,.35-.05,.02-.12,0-.19-.02-.87-.23-1.38,.05-1.55,.98-.04,.2-.41,.34-.62,.5l-.23-.11Z"/><path class="cls-2" d="M38.64,68.9c-.78-.4-1.62-2.22-1.39-2.93,.07-.2,.35-.43,.56-.45,.15-.02,.49,.28,.49,.43-.01,.83,.44,1.42,.87,2.05,.11,.16,.07,.52-.04,.72-.07,.14-.38,.15-.49,.18Z"/><path class="cls-6" d="M51.22,61.54c-.39-.21-1.01-.29-.77-.9,.24-.61,.78-.26,1.16-.14,.58,.17,1.17,.39,1.7,.69,.2,.11,.25,.49,.38,.75-.28,.08-.58,.27-.83,.21-.57-.14-1.11-.4-1.63-.6Z"/><path class="cls-9" d="M51.88,65.97c-.24,.43-.69,.43-.93,.09-.43-.61-.89-1.21-1.27-1.84-.11-.19-.12-.59,0-.72,.12-.13,.61-.14,.7-.02,.53,.67,1,1.39,1.46,2.11,.08,.12,.03,.32,.03,.39Z"/><path class="cls-7" d="M40.44,.08c.05,.13,.22,.34,.21,.54-.03,.67-.06,1.35-.2,2-.04,.2-.43,.46-.66,.45-.36-.01-.46-.31-.39-.7,.11-.58,.11-1.17,.18-1.76,.06-.49,.42-.75,.85-.53Z"/><path class="cls-21" d="M.17,43.06c-.04-.08-.2-.28-.16-.43,.05-.19,.22-.45,.4-.5,.6-.19,1.22-.34,1.84-.44,.18-.03,.45,.12,.56,.28,.09,.12,.06,.41-.03,.57-.23,.39-2.08,.8-2.6,.53Z"/><path class="cls-16" d="M64.61,22.26c-.07,.05-.16,.19-.29,.23-.58,.17-1.17,.36-1.76,.45-.19,.03-.54-.21-.59-.39-.05-.19,.11-.6,.28-.66,.61-.22,1.24-.39,1.88-.47,.43-.06,.69,.42,.49,.85Z"/><path class="cls-17" d="M20.37,16.65c.66,.35,1.07,1.53,.78,2.04-.1,.17-.38,.35-.55,.32-.2-.03-.42-.25-.52-.45-.17-.34-.3-.72-.37-1.1-.04-.22-.01-.53,.12-.67,.13-.14,.43-.12,.53-.14Z"/><path class="cls-3" d="M14.72,19.8c-.14-.25-.37-.55-.46-.89-.04-.16,.16-.47,.33-.57,.13-.07,.41,.05,.59,.15,.19,.1,.38,.25,.52,.42,.18,.22,.46,.5,.43,.71-.06,.37-.41,.48-.8,.34-.16-.06-.32-.08-.61-.15Z"/><path class="cls-15" d="M33.82,2.01c-.52-.25-.91-1.05-.71-1.45,.17-.34,.42-.36,.73-.2,.46,.23,.9,1.04,.74,1.39-.16,.36-.38,.44-.76,.26Z"/><path class="cls-20" d="M23.25,33.44l-.31,.18,.31-.18Z"/><path class="cls-13" d="M18.78,37.3l-.15,.12,.15-.12Z"/><path class="cls-13" d="M25.72,33.99c-.22-.03-.44-.06-.66-.09,.22,.03,.44,.06,.66,.09Z"/><path class="cls-13" d="M26.35,34.14c-.09,0-.18,0-.27-.01,.09,0,.18,0,.27,.01Z"/><path class="cls-12" d="M35.58,51.63c-.37-.2-.74-.41-1.11-.61-.11-.09-.22-.18-.33-.27-1.12-.7-2.23-1.39-3.35-2.09-.18-.11-.37-.19-.56-.28-.44-.24-.87-.48-1.31-.73-1.99-.93-3.96-1.87-5.96-2.76-.86-.38-1.77-.64-2.66-.95l-.47-.26c-.39-.27-1.11-.24-.94-1.02,.05-.11,.11-.23,.16-.34l.43-.22h.28c.23,.09,.47,.19,.7,.3,.13,.03,.25,.06,.38,.09,.08,.04,.15,.07,.23,.11,.21,.06,.41,.12,.62,.19l1.04,.48,.84,.3c1.04,.47,2.09,.93,3.13,1.4,1.1,.54,2.2,1.08,3.31,1.62,.7,.4,1.4,.79,2.1,1.19l.42,.3,1.12,.6,.53,.38,.33,.19,.31,.24c.29,.16,.59,.33,.88,.49,.1,.09,.2,.17,.3,.26,.15,.08,.29,.18,.44,.25,.46,.22,.7,.55,.47,1.06-.24,.54-.66,.59-1.14,.31l-.19-.19Z"/><path class="cls-8" d="M28.91,47.65c.44,.24,.87,.48,1.31,.73-1.39,2.21-2.79,4.43-4.17,6.65-.87,1.4-1.73,2.8-2.57,4.21-.74,1.25-1.46,2.52-2.17,3.79-.25,.44-.56,.64-1.04,.4-.47-.24-.54-.63-.29-1.07,.81-1.41,1.6-2.83,2.44-4.22,1.52-2.51,3.06-5,4.6-7.5,.62-1,1.25-2,1.88-3Z"/><path class="cls-20" d="M19.04,42.31c-.05,.11-.11,.23-.16,.34-.07-.11-.15-.21-.22-.32l.38-.03Z"/><path class="cls-14" d="M34.81,49.45l-.31-.24,.31,.24Z"/><path class="cls-11" d="M20.83,42.47c-.13-.03-.26-.06-.38-.09,.13,.03,.26,.06,.38,.09Z"/><path class="cls-14" d="M36,50.21c-.1-.09-.2-.17-.3-.26,.1,.09,.2,.17,.3,.26Z"/><path class="cls-11" d="M19.75,42.08h0Z"/><path class="cls-14" d="M35.58,51.63l.19,.19-.19-.19Z"/><rect class="cls-18" x="44.52" y="32.38" width="2.5" height="6.33" transform="translate(16.56 -14.5) rotate(21.9)"/></svg>