<svg id="Layer_1" data-name="Layer 1" xmlns="http://www.w3.org/2000/svg" xmlns:xlink="http://www.w3.org/1999/xlink" viewBox="0 0 502.97 468.5"><defs><style>.cls-1{fill:url(#linear-gradient);}</style><linearGradient id="linear-gradient" x1="4.52" y1="256" x2="507.48" y2="256" gradientUnits="userSpaceOnUse"><stop offset="0" stop-color="#ff6c85"/><stop offset="1" stop-color="#f33ef7"/><stop offset="1" stop-color="#772cfc"/></linearGradient></defs><path class="cls-1" d="M495.74,58.38q11.68,25.93,11.7,64.09.49,38.67-4.58,64.6-6.62,31.55-14.24,62.57Q470.8,317.31,444.36,370.2q-27,53.42-66.13,86.48-38.67,33.57-83.42,33.57-50.88,0-75.8-52.4-48.82,51.9-97.16,51.89-44.25,0-66.64-33.06-22.38-34.08-22.38-86,0-24.91,6.11-61.55,8.13-42.23,12.71-62.06,5.6-23.4,18.32-72.23,12.21-43.24,15.77-59v-1Q97.95,68,76.58,68q-9.15,0-16,7.88T51.15,96q-1.53,7.13-9.16,14a23.26,23.26,0,0,1-17.3,6.36q-11.69-1-16.78-9.93T5.36,85.84q2-9.65,9.67-24.41Q22.16,47.69,38.94,35,56.73,21.76,77.6,21.75q28,0,43.24,15.26,24.41,23.4,12.2,82.92l-15.77,60.53L98.45,251.68q-6.11,24.4-12.71,61.55-6.1,35.1-6.11,57,0,72.75,42.22,72.74,19.34,0,42-17.29t39.93-43.75a323.92,323.92,0,0,1-7.88-89q2.28-44.25,12.21-79.36t29.75-57q19.85-21.87,44.77-21.87,43.74,0,42.73,63.58-1,62.58-36.12,138.37-15.25,34.08-34.08,59,12.71,47.83,43.24,47.82,44.75,0,83.42-58,39.68-59,62.57-147,29-113.43,9.16-159.22-9.67-21.87,8.14-32.05,5.58-5.58,17-2.79T495.74,58.38ZM276.49,187.07q-8.65,0-18.82,25.44-10.68,27-15.77,62.57-5.6,37.65-1.52,67.65,18.31-37.64,33.06-95.63Q288.7,187.09,276.49,187.07Z" transform="translate(-4.52 -21.75)"/></svg>